PathFileType	4	(X/Y/Z)	61_2_49_p0_0-610_filt_butterworth.trc
DataRate	CameraRate	NumFrames	NumMarkers	Units	OrigDataRate	OrigDataStartFrame	OrigNumFrames
60.0	60.0	5	27	m	60.0	152	610
Frame#	Time	RHip			RKnee			RAnkle			RBigToe			RSmallToe			RHeel			LHip			LKnee			LAnkle			LBigToe			LSmallToe			LHeel			Neck			Head			Nose			RShoulder			RElbow			RWrist			RThumb			RIndex			RPinky			LShoulder			LElbow			LWrist			LThumb			LIndex			LPinky			
		X1	Y1	Z1	X2	Y2	Z2	X3	Y3	Z3	X4	Y4	Z4	X5	Y5	Z5	X6	Y6	Z6	X7	Y7	Z7	X8	Y8	Z8	X9	Y9	Z9	X10	Y10	Z10	X11	Y11	Z11	X12	Y12	Z12	X13	Y13	Z13	X14	Y14	Z14	X15	Y15	Z15	X16	Y16	Z16	X17	Y17	Z17	X18	Y18	Z18	X19	Y19	Z19	X20	Y20	Z20	X21	Y21	Z21	X22	Y22	Z22	X23	Y23	Z23	X24	Y24	Z24	X25	Y25	Z25	X26	Y26	Z26	X27	Y27	Z27	
152	2.533333333333333	0.28498474602993823	0.6082266125676327	0.9534326061323697	0.29613991806931694	0.7301519884433926	1.3701826037361027	0.27554095377889537	0.9393923471106251	1.7634419962945507	0.30190992704850794	0.7389083874340714	1.8082751766676153	0.3415941629042697	0.7769909992132371	1.7974418627664126	0.26485663116288405	0.997727959743842	1.8205888289244063	0.08109958334343953	0.632909834158663	0.9678757785387904	0.08738553775476711	0.7461687519570677	1.38521131816688	0.10565782428697552	0.8636635537555029	1.7987794796365795	0.1760813351444472	0.6938221419227073	1.8188855190568747	0.10652556886384767	0.6987112727019897	1.8087425385556446	0.1023790229895728	0.9165171644062878	1.832989785825641	0.1822699198612105	0.5488407663286007	0.422242816711638	0.1752647761171216	0.46659222975905257	0.1915417951510098	0.17984292028308208	0.3683255658276046	0.33592414028362294	0.34386654987757886	0.5215050965534701	0.49465860357550495	0.4110548863878703	0.4770428009442423	0.7231732593936439	0.23036592298083766	0.38640188332538333	0.7727296167196883	0.15346809267013545	0.33228481614593375	0.7591314112544432	0.13899264799408553	0.33597799725640004	0.8155162755750908	0.15576845958661623	0.348867105285561	0.8470772811925893	0.04307578773631961	0.5084169722482037	0.49835374832943213	-0.03066195244176651	0.5463687936875451	0.7082054014850695	0.11294919541225512	0.3656260345759506	0.7353079492754437	0.20033208019528342	0.2839477519285559	0.7390749812923758	0.203095115685608	0.2670815837923899	0.7717533501825036	0.17168982497095142	0.3304592582226302	0.8160472325759345
153	2.55	0.28831207921721347	0.6124253153195272	0.9537046488906598	0.2962158410098505	0.7314275168389517	1.370810561757267	0.2752348407298667	0.9391720854641209	1.7612995448425401	0.30132295913304774	0.7382109938081735	1.8053243798713015	0.3404799633190731	0.777458271920374	1.7955936821656031	0.26295152019329565	0.9974762273366208	1.8190318693313965	0.08088694587345778	0.6329468993063073	0.9670922960882723	0.08717970934032694	0.7461808710092833	1.3864959752839707	0.10564062325489323	0.8636878427328287	1.7987286881347555	0.17620417751094192	0.6966534626247933	1.818057038862558	0.10418586879886974	0.7042929878552642	1.8093263352025422	0.1014015191343793	0.9145574072576991	1.8312103710119465	0.18207105296151163	0.5482416544724146	0.4208160089921455	0.17565173644141527	0.4663556420831411	0.19133725639430726	0.18137207469983607	0.368793864862108	0.3330842115964325	0.34612045353982135	0.5247388715221223	0.4950976251419026	0.4113846077270491	0.48325367565338045	0.7246546641682456	0.24095498605675938	0.3835070096858106	0.7757880406351676	0.16033163139200074	0.3416548874064329	0.7737666859806499	0.14613202551530657	0.33729410427081247	0.8247875536705628	0.16572462285714734	0.3587964132482894	0.8541895164637054	0.04295205628603436	0.5090612148807491	0.4979548809840506	-0.03115561083120941	0.54585781823629	0.7090614047093883	0.11486567186615552	0.3694159955531122	0.7451552935712863	0.20186641734755964	0.29533674959644024	0.7520426723546834	0.2061340380600594	0.2766777980653123	0.7819079402716903	0.17278508890316915	0.3347135394316768	0.8280232653441171
154	2.566666666666667	0.29195098321141916	0.6181004548666037	0.9544070921141441	0.2968905668490078	0.7350532047450776	1.372347667760818	0.2749187733249192	0.9392365365393551	1.7588622415350579	0.3010479846915549	0.7377835683262011	1.8036044360177224	0.33917774160710756	0.7779263654627226	1.7955350276536617	0.2615031751766032	0.9972204556688842	1.817856519767132	0.0806968691986819	0.6342659143049718	0.9662583218773109	0.08730387171496835	0.745454225666776	1.3885535233340307	0.10557233865488844	0.8632806201739482	1.7984945865501947	0.1762275442385814	0.7017658676402416	1.817827110443617	0.10237167152649623	0.7087773534420145	1.8101540380060683	0.10129948070057439	0.9112814743153204	1.829764428696741	0.18162503175505076	0.5472580761152227	0.41881591614275016	0.17722992271571503	0.46640920111057915	0.19098555373113052	0.18273242753390942	0.37243646089911187	0.32697568247666825	0.34800569859578845	0.5310113967680837	0.49524935251838176	0.41175113482083414	0.4922917711427666	0.7257527892940404	0.25411805451630054	0.3791111524263063	0.779485670362041	0.1690085301919216	0.34932313108625734	0.7878534353282473	0.1557703446408456	0.3399173560848838	0.8329808816105165	0.1753501637030662	0.3671113119581277	0.8606876948935176	0.04286364200560307	0.5091538343533555	0.49921025056038226	-0.03161205038245378	0.5437206968959275	0.7105851575176835	0.1169218434746292	0.37841287063438767	0.7557060715207911	0.20316696739826134	0.31996832229213024	0.7637190557999337	0.2069792113253188	0.302279613921741	0.7932537815749451	0.17782265296042757	0.3411558046755483	0.839465855359742
155	2.583333333333333	0.2942182356997636	0.623045762462431	0.9557279788772999	0.29801264994211435	0.7409007679716848	1.3749416130950736	0.27479405386188316	0.9397030082892115	1.757373717711181	0.3011270772728666	0.7380603313473133	1.8037452130981775	0.338737879948069	0.7785937587612344	1.7979264829997952	0.2609106619758857	0.9971238903212257	1.8174720665259358	0.08061057415265967	0.6370047147799837	0.9679836242170751	0.08818648892320244	0.7437216877065138	1.3916286774083328	0.10553024231156065	0.8630017434827546	1.798280475326505	0.1766190348091589	0.7097460953806235	1.8190008948494523	0.10153085496904775	0.7111205489624699	1.8108864497994477	0.1027182185288483	0.9060854537123104	1.8279648331454343	0.18139765675805739	0.5461398460593887	0.41739526321365145	0.18035178775794727	0.4671129810539383	0.19050715933571025	0.18459046598024398	0.37588300079213494	0.32096573677923607	0.34900236746415525	0.5369324211395425	0.49523800116078465	0.41272704065304266	0.5082138304095687	0.7268252898889618	0.2671320212860081	0.38139093020837184	0.783866318958828	0.17771332486866398	0.3547332659398644	0.7990776629890514	0.16597711839234	0.34491207631419596	0.839985840147805	0.18295575281779725	0.37657988846521173	0.8648412562362969	0.04280753527118955	0.5079343959153049	0.5019150540838432	-0.03191671184217195	0.5416156366552018	0.7127664928878296	0.11829222044189285	0.39102541489289644	0.7646052300238533	0.2038601406039741	0.3518241966608014	0.7726850878994114	0.20653427235318078	0.33849078054574505	0.8045170619435852	0.1855677265405904	0.3527139065338933	0.8494404553215098
156	2.6	0.2947665297757147	0.6268923119154315	0.9579340078840785	0.29898330139285734	0.7463008242972979	1.377904999714855	0.2748505130005632	0.9402938359871912	1.7573236123058331	0.30135926444192396	0.7389795408822768	1.8052017417069506	0.33982562192031224	0.779484718738976	1.800504583388208	0.260797075220903	0.9973267577161858	1.8179528295110716	0.0805705346316607	0.6397149681651317	0.9730986331253121	0.0901241899265651	0.7415659200286253	1.3951629302923807	0.10554745325957415	0.8630070208771178	1.798285629754415	0.17747249017133257	0.7179302451892506	1.821234863346392	0.10131066769176651	0.712086157627808	1.8112405329474375	0.10501834373942584	0.8998842181886356	1.825746211892818	0.18191064446901378	0.5445256100132513	0.41725672445022877	0.184093958680448	0.46838860006386507	0.18995826373965236	0.18674696935037818	0.3765043262098546	0.3177564986604516	0.34928052555466665	0.5397962452586712	0.49542145148624694	0.41544499205785024	0.5289070030107551	0.727851061604732	0.2789321330242777	0.3919995288345282	0.7890731541428734	0.18564231778305598	0.3598017754576456	0.8076985638223394	0.17483992164537637	0.3521329726620847	0.8460603112608895	0.18892052675465318	0.39093277624923584	0.8677508912782981	0.04268794592976368	0.504925452718012	0.5047781485022513	-0.03210294407080838	0.54128614259709	0.7156280383421061	0.11920673004233662	0.4033077166714777	0.7711137933601533	0.20411322396769854	0.3792507029763423	0.7797634751751861	0.2071353666808291	0.37270824179493645	0.8145073590881006	0.19340146615164694	0.3688350937960361	0.8575541457837037
